<?xml version="1.0" encoding="UTF-8"?>
<!DOCTYPE svg PUBLIC "-//W3C//DTD SVG 1.1//EN" "http://www.w3.org/Graphics/SVG/1.1/DTD/svg11.dtd">
<!-- Creator: CorelDRAW -->
<svg xmlns="http://www.w3.org/2000/svg" xml:space="preserve" width="2.80577in" height="1.6851in" style="shape-rendering:geometricPrecision; text-rendering:geometricPrecision; image-rendering:optimizeQuality; fill-rule:evenodd; clip-rule:evenodd"
viewBox="0 0 6.40267 3.84533"
 xmlns:xlink="http://www.w3.org/1999/xlink">
 <defs>
  <style type="text/css">
   <![CDATA[
    .fil0 {fill:#040404}
   ]]>
  </style>
 </defs>
 <g id="Layer_x0020_1">
  <metadata id="CorelCorpID_0Corel-Layer"/>
  <path class="fil0" d="M3.17306 0.00859779c0.0366731,-0.00839115 0.0803359,-0.0190283 0.109732,0.0137187 0.027707,0.0475888 0.0128742,0.106363 0.0198728,0.158713 0.127916,-0.00168901 0.254151,0.0221099 0.382076,0.0204388 0.0128742,-0.0526289 0.0285515,-0.104692 0.0442287,-0.156198 0.0103317,-0.0215798 0.0307346,-0.0354333 0.0640926,-0.0389102 0.0817374,0.0436627 0.0822944,0.134923 0.0747298,0.216373 0.134645,0.0159558 0.26592,0.0515059 0.399442,0.0736157 0.00755563,-0.0447858 0.0153898,-0.089293 0.0226669,-0.13407 0.00562405,-0.018633 0.0303034,-0.0398894 0.0545874,-0.0375086 0.0161894,-0.00122184 0.0511824,0.0136648 0.0699772,0.0296655 0.0296745,0.0638141 0.0389102,0.133513 0.0436627,0.202933 0.514196,0.151715 0.980525,0.452898 1.33938,0.850085 0.0232329,0.0274375 0.0444983,0.0568245 0.0652066,0.0867775 -0.395229,-0.363048 -0.886749,-0.612446 -1.40682,-0.739527 -0.00867864,0.0795003 -0.0148417,0.165712 -0.0738943,0.225887 -0.131285,-0.0226669 -0.118689,-0.170464 -0.130162,-0.271509 -0.129308,-0.0212744 -0.258356,-0.0425487 -0.388518,-0.057103 -0.0151113,0.0696987 -0.0153898,0.158713 -0.0766883,0.205179 -0.122606,0.0131527 -0.121762,-0.139406 -0.121762,-0.22533 -0.12876,-0.0061631 -0.257799,-0.00951417 -0.386838,-0.0106372 -0.0209869,0.0694112 -0.03219,0.149469 -0.085933,0.202654 -0.0445073,0.0232329 -0.0860408,-0.0150394 -0.105662,-0.043528 -0.0042405,-0.0272218 -0.0093794,-0.103425 -0.0107809,-0.156889 -0.125957,0.00923566 -0.25248,0.0103587 -0.377593,0.0279945 -0.0173573,0.089284 -0.0453518,0.177742 -0.100496,0.251636 -0.0137457,0.00389012 -0.0418929,0.00404285 -0.0568155,-0.00140152 -0.0249578,-0.0114817 -0.0458818,-0.0308424 -0.0512274,-0.0554229 -0.0124879,-0.0574354 0.00140152,-0.117278 0.00363856,-0.175774 -0.122876,0.0173483 -0.251079,0.0201513 -0.367243,0.0668956 -0.0181928,0.107198 -0.05934,0.213004 -0.13911,0.289701 -0.12876,-0.0195943 -0.0752958,-0.169629 -0.0808929,-0.25947 -0.247171,0.0668867 -0.489849,0.147789 -0.722735,0.253873 -0.104683,0.0428272 -0.193131,0.120648 -0.303699,0.148076 0.320777,-0.272362 0.691938,-0.483686 1.09472,-0.607685 0.0361161,-0.0601845 0.0478673,-0.171866 0.137996,-0.166835 0.0627001,-0.00755563 0.0607505,0.0730677 0.0722232,0.115041 0.115886,-0.0344271 0.23568,-0.0540124 0.355762,-0.0699682 0.0190373,-0.0498258 0.0391887,-0.0990857 0.0613075,-0.147797 0.00922667,-0.0176088 0.0426475,-0.0372211 0.0705342,-0.0349841 0.0526199,0.0341396 0.0677401,0.0929316 0.0643801,0.152272 0.121474,-0.0103587 0.243236,-0.0165218 0.365276,-0.0176358 0.0139972,-0.0405902 0.027716,-0.0811714 0.0411472,-0.12204 0.00545335,-0.0159558 0.0175999,-0.0477505 0.0302315,-0.0613075zm-1.62767 0.256397c0.0884485,-0.0324686 0.174103,-0.0794824 0.26955,-0.08817 -0.242122,0.155353 -0.4305,0.394402 -0.706492,0.493488 -0.279352,0.134636 -0.541625,0.307894 -0.765562,0.522875 -0.0822854,0.0755743 -0.151427,0.163466 -0.234557,0.237917 0.346804,-0.521752 0.855404,-0.933215 1.43706,-1.1661zm3.22708 -0.0537519c0.0120297,-0.00139254 0.0240684,-0.00251555 0.0360981,-0.00391707 0.623371,0.229526 1.19186,0.624485 1.59409,1.15604 -0.247449,-0.227298 -0.514196,-0.436106 -0.813699,-0.590894 -0.134357,-0.0795003 -0.281589,-0.131842 -0.421822,-0.199016 -0.139963,-0.110846 -0.24912,-0.257242 -0.394681,-0.362212zm0.530718 3.14395c0.369202,-0.17634 0.710768,-0.422855 0.969969,-0.741117 0.00928058,-0.010745 0.00698963,-0.0122903 0.028282,-0.0233317l-0.0258473 0.0439592c-0.330013,0.479212 -0.797744,0.859887 -1.33041,1.09305 -0.112804,0.0431057 -0.222527,0.102455 -0.343453,0.117566 0.158156,-0.117287 0.310149,-0.242688 0.464379,-0.364997 0.0699682,-0.0571119 0.156737,-0.0856634 0.237082,-0.125131zm-5.30318 -0.690536c0.224216,0.190616 0.447867,0.387116 0.709017,0.527636 0.16599,0.102437 0.34569,0.178299 0.523432,0.257511 0.0895715,0.0649461 0.162909,0.149756 0.245482,0.223093 0.0439502,0.0489813 0.108043,0.0850885 0.128194,0.151149 -0.628115,-0.230927 -1.1941,-0.630639 -1.60612,-1.15939zm0.551983 0.0974146c0.00364755,-0.00392605 -0.00363856,0.00391707 0,0 0.376209,0.353803 0.869122,0.572413 1.36653,0.702009 0.513909,0.129596 1.04882,0.164867 1.57644,0.13212 0.642687,-0.0377871 1.29459,-0.156755 1.86785,-0.461855 0.0520629,-0.0269074 0.0511645,-0.0390449 0.15865,-0.0844955l-0.0391258 0.0357927c-0.564579,0.509156 -1.33881,0.720489 -2.08449,0.751835 -0.722726,0.0369516 -1.47625,-0.0744513 -2.10241,-0.455692 -0.28131,-0.16263 -0.52371,-0.382354 -0.743444,-0.619715z"/>
 </g>
</svg>
